<?xml version="1.0" encoding="utf-8"?>
<!-- Generator: Adobe Illustrator 24.0.1, SVG Export Plug-In . SVG Version: 6.00 Build 0)  -->
<svg version="1.1" id="Layer_1" xmlns="http://www.w3.org/2000/svg" xmlns:xlink="http://www.w3.org/1999/xlink" x="0px" y="0px"
	 viewBox="0 0 1080 1080" style="enable-background:new 0 0 1080 1080;" xml:space="preserve">
<style type="text/css">
	.st0{fill:none;stroke:#FABC5C;stroke-miterlimit:10;}
	.st1{fill:#8E8F93;}
	.st2{fill:#FABC5C;}
	.st3{fill:#ED6B70;}
	.st4{fill:none;stroke:#FFFFFF;stroke-miterlimit:10;}
	.st5{fill:#FFFFFF;}
</style>
<g>
	<path class="st4" d="M863.33,562.96c0.28-3.29,3.01-5.61,5.99-7.78c5.93-4.32,11.05-8.05,20.02-10.57
		c5.8-1.63,7.23-1.07,13.63-3.32c3.63-1.28,6.53-2.32,9.71-4.6c5.81-4.16,7.41-8.73,8.46-8.26c1.19,0.53,0.79,7.03-2.93,12.01
		c-2.85,3.83-6.66,5.43-12.41,7.75c-5.77,2.34-6.63,1.69-14.31,4.43c-6.54,2.34-9.81,3.51-11.96,5.45
		c-4.04,3.64-4.29,7.08-8.94,9.04c-1,0.42-3.94,1.66-5.8,0.26C863.11,566.1,863.3,563.39,863.33,562.96z"/>
	<path class="st4" d="M793.36,530.79c-2.12-0.7-7.11,6.46-9.11,13.66c-2.3,8.3-0.34,15.65,0.96,19.37c1.39-1.74,2.87-3.88,4.23-6.42
		c2.8-5.23,4.01-10.14,4.55-13.73C795.3,533.45,794.38,531.12,793.36,530.79z"/>
	<path class="st4" d="M890.99,494.77c-37.07,40.13-63.86,69.61-67.25,73.84c-1.99,2.48-2.67,4.67-2.95,6.02
		c-0.65,3.12-0.02,5.66,0.34,6.82c1.04,0.03,3.33-0.04,5.79-1.36c2.55-1.36,3.89-3.31,4.43-4.2c14.46-15.61,28.96-31.48,43.51-47.6
		c10.04-11.13,19.96-22.22,29.76-33.29c0.19-2.92,0.38-5.83,0.57-8.75c-2.4,0.71-4.24,0.61-5.34,0.45
		c-8.27-1.18-14.12-11.32-16.25-15c-1.03-1.79-1.21-2.39-2.16-3.29c-2.88-2.77-8.37-4.08-13.29-3.18c-1.76,0.32-3.25,0.89-3.98,0.11
		c-0.81-0.88,0.36-2.38-0.11-4.54c-0.41-1.87-1.88-3.47-3.29-4.2c-3.78-1.97-7.48,2.04-10.11,0.23c-1.7-1.17-0.88-3.35-2.04-6.13
		c-1.02-2.45-3.61-5.45-10.68-7.5c-31.47,87.51-40.64,117.73-40.44,123.03c0.03,0.7,0.34,4.38-1.93,7.16
		c-2.51,3.06-6.89,3.47-7.61,3.52c-5.23,0.41-7.56-2.73-10.11-1.14c-1.59,0.99-2.28,3.2-2.16,5c0.17,2.44,1.82,3.91,2.16,4.2
		c15.6,10.68,31.2,21.36,46.8,32.04c1.48,0.68,3.86,1.54,6.82,1.59c4.32,0.08,7.66-1.59,10.34-3.18
		c8.19-4.87,13.83-11.21,15.79-13.41c8.33-9.33,13.29-15.21,18.4-19.88c8.08-7.37,15.41-11.15,28.4-17.84
		c15.19-7.82,17.14-6.69,25.9-12.72c2.82-1.94,11.24-8,19.31-18.4c11.16-14.38,14.94-28.38,16.36-33.85
		c1.62-6.24,11.79-48.35-15.22-82.93c-16.98-21.75-39.63-28.95-49.08-31.81c-4.11-1.24-22.14-6.43-45.67-3.41
		c-11.3,1.45-27.93,3.58-44.3,15.68c-3.01,2.22-21.5,16.26-28.85,40.44c-5.5,18.09-6.27,46.78-6.36,50.89
		c-0.14,5.89,0.03,8.02-1.14,11.59c-6.24,19.15-33.37,26.44-37.49,27.49c-3.51,0.89-6.46,1.35-8.41,1.59
		c-204.79,0-409.57,0-614.36,0c-2.52,0.75-4.28,2.6-4.27,4.32c0,2.26,3.05,4.95,7.23,4.32c204.56,0.23,409.12,0.45,613.68,0.68
		c3.28-0.08,7.79-0.46,12.95-1.82c12.67-3.33,21.05-10.33,24.77-13.86c12.07-11.46,15.54-24.82,16.59-29.08
		c1.66-6.74,0.5-7.19,2.04-19.54c0.83-6.68,2.37-18.99,6.13-29.76c6.95-19.91,20.64-32.14,23.4-34.54
		c18.92-16.42,40.1-18.84,47.03-19.54c5.69-0.57,35.03-2.95,61.12,16.59c2.53,1.89,14.97,11.44,24.54,28.85
		c6.25,11.38,8.95,21.9,10.22,29.08c1.01,6.42,1.75,16.1-0.45,27.49c-0.88,4.57-3.9,18-13.86,31.81
		c-11.78,16.34-27.12,24.64-36.58,29.76c-11.67,6.32-14.62,5.61-24.31,12.5c-7.24,5.15-12.92,10.76-21.13,18.86
		c-6.03,5.95-13.24,10.74-18.63,17.27c-1.28,1.55-3.49,4.34-7.27,5.45c-4.82,1.41-9.39-0.73-12.04-2.04
		c-14.17-7.04-34.04-20.66-37.03-22.72c2.58,0.38,5.15,0.76,7.72,1.14c1.4-0.47,3.49-1.38,5.45-3.18c3.28-3.02,4.27-6.8,4.66-8.24
		c2.03-7.53,5.51-14.61,7.5-22.15c2.83-10.71,3.67-9.02,9.2-25.56c3.71-11.08,4.27-14.64,9.71-34.25c2.02-7.27,5-17.82,8.86-30.67
		c3.5,0.8,5.04,2.21,5.79,3.41c0.43,0.68,0.54,1.18,1.19,1.7c1.45,1.15,2.92,0.27,5.11,0.68c2.13,0.4,4.46,1.92,5.28,3.92
		c1.08,2.63-1.03,4.69,0,5.79c1.6,1.71,7.16-2.67,9.54-0.68c1.37,1.14,0.24,3.19,1.87,5.79c1.1,1.75,2.78,2.7,4.09,3.24
		c2.5,0.17,5,0.34,7.5,0.51c-0.2,1.02-0.36,2.74,0.34,4.6C884.87,493.8,890.71,494.73,890.99,494.77z"/>
	<path class="st4" d="M811.15,429.93c0.34-0.67,1-1.81,4.77-5.23c1.6-1.45,4.29-3.88,7.5-6.13c13.69-9.62,27.04-13.63,27.04-13.63
		c6.3-1.9,18.22-5.35,33.63-3.18c15.62,2.2,26.74,9.01,32.26,12.95c0.16,0.36,1.16,2.73,0,4.54c-1.16,1.81-3.73,1.81-5.23,1.82
		c-3.27,0.01-5.4-1.24-8.18-2.5c-3.21-1.45-6.68-2.24-10-3.41c-9.9-3.47-22.32-2.3-24.99-2.04c-11.54,1.09-19.4,4.71-27.95,8.63
		c-13.54,6.22-18.26,11.63-20.45,14.54c-1.47,1.96-2.51,3.74-3.18,5c-2.88,0.59-4.34-0.36-4.77-0.68
		C808.79,438.51,809.53,433.16,811.15,429.93z"/>
	<path class="st5" d="M815.11,626.42c0.24,0.53,1.78,3.99,0.64,5.01c-1.1,0.99-4.16-0.77-5.32-1.43
		c-7.79-4.47-28.34-24.81-38.03-34.55c-6.32,16.84-10.56,24.54-13.49,28.21c-0.69,0.86-2.84,3.44-2.25,6.13
		c0.43,1.93,2.06,2.86,4.7,4.91c1.89,1.46,4.58,3.71,7.61,6.89c0.33,1.66,0.65,3.31,0.98,4.97c2.79,2.45,5.59,4.91,8.38,7.36
		c2.11-1.16,4.23-2.32,6.34-3.48c-4.36-4.98-8.72-9.95-13.09-14.93c-0.83-1.08-0.89-2.52-0.2-3.48c0.87-1.22,2.86-1.54,4.29-0.41
		c8.96,9.5,17.93,19,26.89,28.5c0.01,0.62-0.04,2.47-1.33,3.6c-1.67,1.45-4.26,0.71-5.32,0.41c-4.65-1.3-5.03-4.98-7.97-4.91
		c-2.12,0.05-2.55,1.98-5.93,2.66c-1.69,0.34-3.16,0.18-4.09,0c-4.4-4.32-8.79-8.64-13.19-12.96c-0.41-1.64-0.82-3.29-1.23-4.93
		c-2.03-0.65-7.09-2.57-10.73-7.67c-1.73-2.42-2.6-4.81-3.07-6.54c6.47-14.13,12.93-28.27,19.4-42.4c0.41-0.3,1.34-0.88,2.61-0.92
		c2.5-0.07,4.03,2.03,4.17,2.22c7.39,7.2,13.23,12.54,17.3,16.18c4.29,3.83,8.33,7.95,12.75,11.63c0.98,0.81,2.41,2.21,5.26,5.01
		C813.15,623.42,814.26,624.58,815.11,626.42z"/>
	<path class="st5" d="M763.64,631.39c-1.07-0.93-1.29-2.81-0.4-4.56c3.81-7.33,7.62-14.66,11.43-21.99c0.83-1.04,2.13-1.47,3.12-1.1
		c1.35,0.5,2.16,2.49,1.21,4.27c-3.5,7.12-7,14.24-10.51,21.36c-0.47,1.55-1.69,2.6-3,2.66
		C765.36,632.03,764.4,632.06,763.64,631.39z"/>
	<path class="st5" d="M813.36,652.96c-1.79,1.02-4.51,0.44-6.55-1.59c-8.48-8.64-16.97-17.29-25.45-25.93
		c-1.07-1.62-1.07-3.59-0.1-4.77c1.32-1.6,4.47-1.78,6.52,0.35c8.33,8.12,16.66,16.25,24.99,24.37c1.95,1.37,2.86,3.53,2.33,5.35
		C815.04,650.92,814.63,652.23,813.36,652.96z"/>
	<path class="st5" d="M836.83,629.5c0.69,1.47,0.06,3.56-1.68,5.02c-7.37,6.04-14.75,12.08-22.12,18.12
		c-1.35,0.72-2.91,0.58-3.77-0.26c-1.18-1.15-1.12-3.63,0.7-5.08c6.95-5.96,13.91-11.91,20.86-17.87c1.21-1.43,2.97-1.99,4.37-1.45
		C835.32,628.04,836.33,628.45,836.83,629.5z"/>
	<path class="st5" d="M245.84,419.76c5.71,0,11.42,0.11,17.12-0.03c14.62-0.33,20.38,15.44,18.7,26.21c-0.36,2.3-1.96,3.1-4.1,3.1
		c-2.74,0-5.49,0-8.23-0.04c-3.36-0.05-4.66-1.62-4.78-5.14c-0.29-8.81-1.75-9.98-10.65-9.99c-6.55-0.01-13.11-0.01-19.66,0
		c-9.47,0.02-11.32,1.93-11.29,11.63c0.01,1.69-0.1,3.41,0.19,5.06c0.94,5.49,3.98,8.68,9.87,8.66c10.15-0.04,20.3-0.05,30.44,0
		c11.81,0.05,18.2,6.1,18.52,17.73c0.19,6.76,0.17,13.53,0,20.29c-0.24,9.29-5.15,15.24-14.41,16.39
		c-14.08,1.75-28.3,1.48-42.38,0.29c-11.3-0.96-17.86-8.86-18.73-20.4c-0.09-1.26-0.03-2.54-0.03-3.8
		c-0.04-11.28,0.56-11.54,11.85-10.52c4.1,0.37,4.71,1.93,4.75,5.47c0.13,12.95,2.89,15.56,15.63,15.56
		c6.34,0,12.69,0.04,19.03-0.03c1.89-0.02,4.24,0.3,5.58-0.66c7.61-5.45,3.63-13.54,3.9-20.5c0.2-5.06-3.72-7.15-8.64-7.13
		c-10.57,0.03-21.14,0.04-31.71,0c-10.48-0.05-16.35-6-16.39-16.56c-0.02-6.13-0.04-12.26,0-18.39
		c0.07-10.26,6.62-16.92,17.04-17.17C233.58,419.64,239.71,419.76,245.84,419.76z"/>
	<path class="st5" d="M636.15,407.58c-0.29,0.58-0.96,0.67-2.21,2.11c0,0-0.58,0.77-1.25,1.73c-0.1,0.19-0.19,0.38-0.29,0.58
		c-1.63,2.79-1.35,6.73-1.35,7.21v73.61c0,13.93-7.69,21.62-21.43,21.62c-10.76,0-21.62,0.1-32.38,0
		c-13.84-0.1-21.72-7.88-21.72-21.52c-0.1-22.01,0.1-44.01-0.1-66.02c0-5,0.96-7.98,6.92-7.98c5.67,0.1,7.78,2.11,7.69,7.98
		c-0.29,19.41-0.1,38.92-0.1,58.33c0,11.24,2.59,13.74,13.84,13.74c7.01,0,13.93,0.1,20.95,0c8.36,0,11.34-2.88,11.34-11.53
		c0.1-21.24,0.38-42.47,0-63.71c0,0-0.1-4.61-0.19-9.8v-1.25c0.19-8.46,3.94-14.7,8.07-21.62l0.1-0.1l1.83-2.69
		c2.5,4.13,4.71,7.69,6.82,11.15C634.33,402.1,637.4,405.66,636.15,407.58z"/>
	<path class="st5" d="M700.73,420.07h-19.7c-7.4,0-14.8-0.1-22.2,0.1c-6.53,0.1-9.42,2.69-9.42,9.13c-0.1,25.37,0.1,50.74-0.1,76.11
		c0,5,2.59,6.15,6.82,5.67c4.04-0.38,9.61,1.83,9.42-5.67c-0.19-6.15-0.1-12.3,0-18.45c0-7.98,0.77-8.84,8.55-8.84
		c9.13-0.1,18.16,0.1,27.29-0.1c11.24-0.19,17.39-6.63,17.39-17.87v-22.2C718.7,426.22,712.65,420.17,700.73,420.07z M704.77,457.64
		c-0.19,4.42-2.31,7.01-7.3,6.73c-4.42-0.29-8.84,0-13.26,0c-4.61,0-9.32-0.1-13.93,0c-3.94,0-5.86-2.02-5.86-5.86
		c0-6.15,0.1-12.3-0.1-18.35c-0.1-4.13,2.02-5.96,5.67-6.05c9.03-0.19,18.16-0.29,27.29,0.1c4.8,0.19,7.69,3.07,7.59,8.26
		C704.86,447.55,705.05,452.65,704.77,457.64z"/>
	<path class="st5" d="M402.84,446.78c-10.76-0.38-21.52-0.38-32.29,0c-7.88,0.29-13.55,9.9-10.57,16.91
		c0.48,1.15,1.15,1.83,2.31,1.83c3.94-0.29,7.98,1.06,11.72-2.69c6.05-6.05,14.03-6.44,21.91-4.61c5.96,1.34,5.38,6.44,4.9,10.86
		c-0.58,5.09-4.32,1.73-6.34,1.54c-7.4-0.58-14.8-0.67-22.1,0.19c-8.07,0.96-11.44,4.23-12.78,12.4c-1.06,5.86-0.29,11.72,0.1,17.59
		c0.29,6.15,3.56,9.32,8.94,10.76c8.46,2.31,17.01,3.08,25.66,0.96c4.13-0.96,8.07-1.35,12.4-0.29c6.25,1.63,9.03-0.96,9.03-7.59
		c0.1-7.4,0.1-14.8,0.1-22.2v-21.52C415.72,452.36,411.3,447.17,402.84,446.78z M393.61,501.46c-2.5,0.29-5,0.67-7.49,0.96
		c-3.46,0.1-6.73-0.67-9.9-1.73c-5.48-1.83-6.73-5.96-6.05-10.95c0.58-4.8,3.36-7.59,8.36-7.88c5-0.29,9.9-1.54,14.99-0.38
		c5.57,1.25,9.23,4.23,9.32,10.19C403.03,497.81,399.38,500.69,393.61,501.46z"/>
	<path class="st5" d="M322.7,577.37c-9.03-0.19-18.16,0-27.19-0.1c-2.59,0-5.09,0.1-7.4,1.25c-5,2.4-8.17,9.8-6.34,15.28
		c1.63,4.71,5.86,1.63,8.84,2.31c2.5,0.67,3.56-1.63,5.09-3.08c5.96-5.48,17.59-7.3,23.64-3.94c5.19,2.88,4.23,7.69,3.46,11.72
		c-0.77,3.65-4.13,0.87-6.34,0.67c-7.4-0.58-14.7-0.87-22.1,0.1c-9.03,1.06-12.78,5.38-13.07,14.7c-0.19,4.8,0,9.71,0.19,14.51
		c0.1,6.15,3.36,9.71,9.23,11.24c8.94,2.31,17.97,2.59,26.91,0.48c3.65-0.87,7.01-0.77,10.57,0.1c6.44,1.63,8.94-0.48,9.03-7.4
		c0.1-7.3,0-14.7,0-22.1v-20.95C337.21,582.08,332.88,577.47,322.7,577.37z M317.03,631.86c-6.15,1.35-12.11,1.63-18.16-0.19
		c-5.09-1.54-7.78-4.8-7.3-10.38c0.58-5.57,3.56-8.84,9.23-9.32c2.5-0.29,5.09-0.29,7.11-0.48c3.65,0.38,6.82-0.38,9.9,0.96
		c4.52,1.83,7.3,5,7.02,10.09C324.52,627.44,322.12,630.71,317.03,631.86z"/>
	<path class="st5" d="M210.04,597.44c0-12.68,0.15-25.37-0.08-38.04c-0.09-5.01,1.84-6.68,6.72-6.62c15.01,0.2,30.02,0.2,45.02,0
		c5.12-0.07,7.11,1.59,7.01,6.98c-0.1,5.1-1.52,7.29-6.9,7.15c-10.56-0.28-21.14-0.01-31.7-0.11c-4.73-0.05-6.66,1.57-6.59,6.75
		c0.22,18.05-0.34,16.5,16.68,16.46c6.76-0.02,13.53,0,20.29,0.01c5.03,0,7.05,2.37,6.9,7.52c-0.14,5.01-2.23,6.63-7.01,6.52
		c-9.51-0.23-19.02,0-28.53-0.09c-5.68-0.05-8.6,2.03-8.29,8.28c0.39,7.8,0.03,15.64,0.13,23.46c0.07,5.16-2.39,7.13-7.43,7.02
		c-5.06-0.1-6.3-2.53-6.2-7.23c0.26-12.68,0.09-25.36,0.09-38.05C210.12,597.44,210.08,597.44,210.04,597.44z"/>
	<path class="st5" d="M537.56,585.45c-7.59-12.2-40.94-13.16-49.87-0.87c-1.44,1.92-2.98,3.65-3.36,6.05
		c-2.31,13.36-3.27,26.81,0.1,40.17c1.83,7.02,6.44,11.92,13.84,13.26c5.38,0.87,10.86,1.25,16.34,1.83v-0.48
		c2.5,0,5.09,0.29,7.59,0c11.72-1.25,17.78-7.3,18.83-19.03c0.58-5.67,1.35-11.44,0.86-17.1
		C541.21,601.3,542.37,593.13,537.56,585.45z M528.15,622.92c-0.29,7.3-4.32,11.15-11.53,11.34c-17.87,0.29-20.47,0.29-19.6-18.93
		c0.1-1.06,0-2.11,0-3.17v-8.26c0.1-11.63,3.94-15.18,16.43-15.18c10.57,0.1,14.61,4.32,14.7,15.28
		C528.24,610.24,528.34,616.58,528.15,622.92z"/>
	<path class="st5" d="M351.45,611.49c0-5.49-0.17-10.99,0.04-16.48c0.41-10.76,7.5-17.58,18.25-17.69
		c6.97-0.07,13.95-0.12,20.91,0.01c11.98,0.23,20.3,10.38,18.58,22.18c-0.36,2.45-1.48,3.48-3.65,3.29
		c-3.32-0.3-7.38,1.71-9.47-2.84c-4-8.7-17.43-12.89-25.78-7.98c-3.25,1.92-5.38,4.67-5.37,8.71c0.03,7.39-0.11,14.79,0.04,22.18
		c0.13,6.71,3.07,9.51,9.77,9.66c2.96,0.07,5.92,0.02,8.87,0.01c8.54-0.03,11.37-1.89,13.1-10.48c1.06-5.29,4.36-4.88,7.96-4.61
		c3.77,0.28,4.85,2.62,4.52,6.16c-0.5,5.32-1.52,10.47-4.55,14.96c-2.98,4.42-6.78,7.22-12.6,6.97c-7.38-0.32-14.79-0.04-22.18-0.09
		c-11.08-0.08-18.26-7.13-18.43-18.13C351.38,622.06,351.45,616.78,351.45,611.49z"/>
	<path class="st5" d="M314.17,478.71c0.01,5.49-0.08,10.99,0.03,16.47c0.07,3.77,1.72,5.96,5.96,5.3c1.86-0.29,3.81-0.4,5.68-0.22
		c5.04,0.49,7.89-1.38,7.27-6.7c-0.67-5.71,3.25-4.54,6.5-4.79c3.67-0.28,5.6,0.79,5.17,4.89c-0.29,2.72,0.12,5.51-0.15,8.23
		c-0.71,6.95-4.54,10.84-11.7,12.03c-6.71,1.12-13.5,0.93-20.2,0.29c-7.78-0.74-11.7-4.63-12.67-12.56
		c-1.44-11.76-0.39-23.62-0.56-35.43c-0.06-4.19,0.48-8.18-5.83-7.83c-2.94,0.17-3.66-2.24-3.41-4.92c0.29-3.04-0.77-7.39,3.53-7.66
		c5.09-0.33,5.97-2.69,5.4-6.81c-0.87-6.3,2.94-6.66,7.76-6.66c4.71,0,8.16,0.64,7.19,6.49c-0.9,5.45,1.54,6.89,6.67,6.52
		c5.88-0.43,11.83,0.05,17.73-0.15c4.66-0.16,6.3,1.77,6.29,6.4c-0.01,4.7-1.4,7.22-6.44,7.12c-6.12-0.13-12.27,0.28-18.37-0.12
		c-4.93-0.33-6.28,1.6-5.94,6.18C314.43,469.4,314.16,474.07,314.17,478.71z"/>
	<path class="st5" d="M637.25,620.84c5.06-11.99,10.13-23.98,15.16-35.99c0.99-2.36,1.7-5.03,4.74-5.34
		c3.11-0.31,6.98-1.5,9.16,0.55c2.05,1.93-0.61,5.05-1.48,7.52c-8.31,23.69-16.72,47.35-25.13,71.01
		c-2.6,7.31-14.55,11.83-21.04,7.94c-1.79-1.07-2.35-2.94-2.28-4.93c0.08-2.36,1.32-3.75,3.61-4.6c9.82-3.65,10.73-5.41,7.64-15.76
		c-4.95-16.57-10.12-33.08-15.11-49.64c-0.68-2.27-1.62-4.32-2.94-6.26c-1-1.47-3.28-2.71-1.92-4.86c1.19-1.87,3.47-0.96,5.29-1.22
		c6.02-0.88,9.11,1.59,10.9,7.56c3.44,11.45,7.74,22.64,11.68,33.94C636.1,620.79,636.67,620.82,637.25,620.84z"/>
	<path class="st5" d="M494.4,480.6c0-6.12-0.11-12.25,0.04-18.37c0.08-3.05-0.61-4.81-4.14-4.63c-3.34,0.18-4.89-1.6-4.95-5.06
		c-0.06-3.51,0.41-6.84,4.56-6.86c4.83-0.02,4.98-2.79,4.65-6.18c-0.45-4.56,1.76-5.85,6.01-5.75c4,0.09,6.84,0.94,6.2,5.63
		c-0.66,4.86,1.37,6.22,6.04,5.96c6.53-0.37,13.09-0.02,19.63-0.11c4.44-0.06,5.86,2.24,5.87,6.34c0.01,4.23-1.51,6.15-6.03,5.91
		c-5.9-0.31-11.82-0.01-17.73-0.1c-5.22-0.09-7.83,2.16-7.77,7.57c0.11,9.71,0.13,19.43,0,29.14c-0.08,6.46,3.67,7.51,9.07,7.52
		c5.47,0.01,9.58-0.47,9.52-7.56c-0.06-7.29,4.75-10.23,11.7-7.82c2.15,0.74,2.7,2.28,2.91,4.35c1.27,12.14-8.35,23.06-20.51,23.21
		c-2.95,0.04-5.9,0.21-8.84,0.33c-9.9,0.41-16.05-5.28-16.21-15.14C494.32,492.85,494.4,486.73,494.4,480.6z"/>
	<path class="st5" d="M426.94,612.14c-0.01-6.13-0.15-12.26,0.05-18.38c0.11-3.48-0.33-5.78-4.68-5.24
		c-3.63,0.45-4.76-1.91-4.84-5.1c-0.09-3.42,1.13-6.24,4.87-5.95c4.87,0.38,5.12-2.28,4.76-5.76c-0.41-3.92,0.29-6.26,5.26-6.15
		c4.48,0.11,7,1.01,6.18,5.98c-0.76,4.61,1.38,5.74,5.68,5.52c6.53-0.33,13.1,0.07,19.65-0.14c4.56-0.15,6.31,1.48,6.35,6.25
		c0.04,4.88-2.05,5.53-6.16,5.29c-5.69-0.33-11.41,0.04-17.11-0.12c-5.57-0.16-8.32,2.51-8.37,7.92
		c-0.09,9.72-0.19,19.45,0.04,29.16c0.16,6.75,2.4,8.05,10.66,8.09c5.75,0.03,8.61-2.1,8.55-8.18c-0.07-6.56,5.91-9.94,11.96-7.15
		c1.36,0.63,1.79,1.64,1.88,2.98c0.56,7.83-1.29,14.83-7.83,19.69c-9.24,6.87-19.54,5.91-29.61,2.63
		c-5.02-1.64-7.12-6.43-7.23-11.68C426.85,625.24,426.95,618.69,426.94,612.14z"/>
	<path class="st5" d="M432.68,479.05c0-9.07-0.02-18.15,0.01-27.22c0.01-2.29-0.28-4.95,2.13-6.22c2.3-1.21,4.49-0.35,6.19,1.64
		c1.43,1.68,3.1,1.76,5.12,0.93c7.11-2.93,14.59-2.01,21.89-1.45c9.84,0.76,17.07,11.77,14.54,21.36c-1.49,5.62-6.13,3.01-9.51,3.48
		c-2.83,0.39-4.73-0.51-5.15-3.95c-0.92-7.53-3.6-9.92-10.04-9.64c-6.69,0.29-10.69,4.31-10.86,11.5
		c-0.21,8.86-0.06,17.73-0.06,26.59c0,2.74,0.02,5.49,0,8.23c-0.06,7.85-3.54,10.35-11.16,8.13c-3.35-0.98-3.03-3.72-3.05-6.16
		C432.62,497.2,432.68,488.12,432.68,479.05z"/>
	<path class="st5" d="M555.74,611.35c0-9.08-0.13-18.15,0.04-27.23c0.13-6.68,2.41-7.84,7.93-4.04c2.26,1.56,4.3,1.36,6.54,0.52
		c7.64-2.87,15.47-1.94,23.12-0.63c8.69,1.49,15.46,15.15,11.11,22.26c-2.24,3.66-6.6,1.21-9.97,1.62c-2.3,0.28-3.17-1.38-3.55-3.54
		c-1.51-8.47-3.28-10.05-10.43-9.7c-6.63,0.33-11.09,4.75-11.24,12.02c-0.25,12.24-0.31,24.49,0.03,36.72
		c0.14,5.1-2.04,5.97-6.39,5.88c-4.3-0.09-7.42-0.47-7.26-6.04C555.93,629.93,555.73,620.64,555.74,611.35z"/>
	<path class="st5" d="M638.56,405.75l-5.86,5.67l-1.63,1.63v3.94l-14.99,6.73c0,0-0.1-4.61-0.19-9.8v-1.25
		c-0.19-3.36-0.29-6.92-0.38-9.42l8.46-12.2l0.1-0.1l1.83-2.69l0.19-0.29L638.56,405.75z"/>
</g>
</svg>
